<svg width="74" height="62" viewBox="0 0 74 62" fill="none" xmlns="http://www.w3.org/2000/svg">
<g clip-path="url(#clip0_183_47)">
<path d="M47 56H27C25.3431 56 24 57.3431 24 59C24 60.6569 25.3431 62 27 62H47C48.6569 62 50 60.6569 50 59C50 57.3431 48.6569 56 47 56Z" fill="#EDF1F5"/>
<path d="M71 0H3C1.34315 0 0 1.34315 0 3C0 4.65685 1.34315 6 3 6H71C72.6569 6 74 4.65685 74 3C74 1.34315 72.6569 0 71 0Z" fill="#EDF1F5"/>
<path d="M36 0H3C1.34315 0 0 1.34315 0 3C0 4.65685 1.34315 6 3 6H36C37.6569 6 39 4.65685 39 3C39 1.34315 37.6569 0 36 0Z" fill="#FB9899"/>
<path d="M71 18H3C1.34315 18 0 19.3431 0 21C0 22.6569 1.34315 24 3 24H71C72.6569 24 74 22.6569 74 21C74 19.3431 72.6569 18 71 18Z" fill="#EDF1F5"/>
<path d="M48 18H3C1.34315 18 0 19.3431 0 21C0 22.6569 1.34315 24 3 24H48C49.6569 24 51 22.6569 51 21C51 19.3431 49.6569 18 48 18Z" fill="#FB9899"/>
<path d="M71 34H3C1.34315 34 0 35.3431 0 37C0 38.6569 1.34315 40 3 40H71C72.6569 40 74 38.6569 74 37C74 35.3431 72.6569 34 71 34Z" fill="#EDF1F5"/>
<path d="M30 34H3C1.34315 34 0 35.3431 0 37C0 38.6569 1.34315 40 3 40H30C31.6569 40 33 38.6569 33 37C33 35.3431 31.6569 34 30 34Z" fill="#FB9899"/>
</g>
<defs>
<clipPath id="clip0_183_47">
<rect width="74" height="62" fill="white"/>
</clipPath>
</defs>
</svg>
